<svg version="1" xmlns="http://www.w3.org/2000/svg" width="1365.333" height="1365.333" viewBox="0 0 1024.000000 1024.000000"><path d="M476.3.7c1.9.5 2.4 2.3.5 2.3-8.6 0-66.7 10-80.8 13.9-3.6 1-10.8 2.9-16 4.1-5.2 1.2-10.3 2.7-11.2 3.1-1 .5-6.8 2.4-13 4.3-11.9 3.6-27.9 9.2-33.8 11.9-1.9.8-8 3.4-13.5 5.7-12.7 5.3-34.9 16.4-48.5 24.1-19 10.8-49.4 31.1-62 41.3-2.5 2-5 3.9-5.5 4.4-1.2.8-13.8 11.4-14.5 12.2-.3.3-4.3 3.9-9 8-10.1 8.8-27.5 26.2-34.5 34.5-9.2 10.8-11 12.9-14.6 16.9-5.9 6.8-22.9 29.3-27.4 36.5-1.9 2.9-10.7 16.4-14.4 22.1-2 3-4.9 8-6.5 11-1.6 3-3.4 6.2-4.1 7-1.6 1.9-16.9 32.6-18 36-.4 1.4-2 5.2-3.6 8.5-11.3 24.6-24.9 68-32.8 105-2.6 11.8-5.7 32.1-8.7 56.5-.8 7.1-1.4 7.9-3 4.4-1-2.4-1.3 4-1.3 38.4-.1 27.3.2 41.1.9 40.7.5-.3 1-1.5 1-2.6 0-4.5 1.8-.5 2.5 5.3C9.4 601 20.7 650.5 34.7 688c9.7 26.1 25 59.6 32.7 71.9 1.4 2.2 2.6 4.3 2.6 4.5 0 1.9 21.1 34.5 31.2 48.2 18.1 24.5 30.3 38.8 50.2 58.9 26.9 27 52.9 48.1 84.8 68.7 6.7 4.3 11.2 6.9 32.8 19.4 18 10.3 44.8 22.2 72 31.7 23.6 8.3 38.5 12.6 71.5 20.2 9.5 2.2 29.6 5.2 47.4 7.1 16.3 1.8 17.2 2.2 8.1 4.2-3.1.7 9.4 1 41 .9 25 0 43.5-.3 41.1-.6l-4.5-.6 3.5-1.2c1.9-.6 6.6-1.4 10.4-1.8 11.9-1.1 41.5-5.5 51.5-7.7 41.1-8.8 87-24.3 123.2-41.6 23.3-11.1 56.9-30.8 74.3-43.6 27-19.8 42.9-33.3 62.4-52.8 9.6-9.5 21-21.6 25.3-26.8 4.4-5.2 8.8-10.4 9.7-11.5 9.2-10.9 31.5-42.6 38.5-54.7 13.9-23.8 21.9-39 31.6-60.3 9.9-21.6 22.3-58.4 30.3-90 7.1-27.9 9.8-41.5 12.2-62 .9-7.2 2.1-15.5 2.7-18.5l1.2-5.5.7 3.5c.3 1.9.6-15.4.6-38.5s-.3-39.3-.6-36c-.8 8.2-1.4 5.8-5.1-21.1-3.4-24.7-5.8-37.5-10.2-54.9-10.3-41.6-22.1-74.7-38.3-107.7-7-14.4-9.3-18.7-19.2-36.3-3.4-6.1-17-27.4-22-34.5-7.1-10-23.1-30.7-27.9-36.1-3.3-3.7-7-8.1-8.4-9.9-1.3-1.8-9.2-10.1-17.5-18.4-13.4-13.5-21.7-21.1-37.3-33.9-2.6-2.1-5.8-4.8-7.2-6-12.6-10.9-44.8-32.6-66.5-44.9-29.4-16.7-68.7-33.4-101.5-43.2C623.5 15 596.4 9.5 548.6 3.5c-4.7-.6-5.2-1.8-1.1-2.8 1.1-.3-14.9-.5-35.5-.5s-36.7.2-35.7.5zm-3.5 313.5l-.3 26.3-131.2.3-131.3.2v139h246v52H210l.2 75.2.3 75.3 136.3.3 136.2.2v51.9l-29.7.4c-16.4.2-80.2.3-141.8.1-61.6-.2-123-.4-136.5-.4h-24.5l.3-222.7c.1-122.6.2-223.1.2-223.6 0-.4 72.5-.7 161-.7h161l-.2 26.2zm400.4-.5c.2 14.2-.1 26.7-.6 27.8-.5 1.1-2.7 4.1-5 6.6-3.7 4.1-12.6 15.1-19.6 24.3-3.7 4.7-9 11.3-12.3 14.9-1.5 1.8-5.4 6.6-8.5 10.7-3.1 4.1-5.9 7.7-6.2 8-.4.3-3 3.6-6 7.4-5.9 7.7-7.3 9.4-11.3 13.9-1.5 1.8-5.4 6.6-8.5 10.7-3.1 4.1-6.5 8.4-7.5 9.5-1.1 1.1-3.1 3.6-4.5 5.5-1.5 1.9-5.8 7.3-9.6 11.9-3.8 4.6-8.5 10.4-10.4 13-1.9 2.5-5.9 7.5-8.8 11.1-3 3.6-7.7 9.4-10.5 13-2.8 3.6-6.6 8.2-8.5 10.2-1.9 2-3.4 4.1-3.4 4.7 0 .5-.4 1.1-.8 1.3-.5.1-3.1 3.1-5.8 6.6-2.7 3.5-6.5 8.3-8.4 10.7-1.9 2.4-4.8 6.1-6.5 8.2-1.6 2.1-4.5 5.5-6.4 7.5-1.9 2.1-4.1 4.8-4.9 6-1.6 2.3-13.2 16.9-14.2 17.8-.3.3-2.4 3-4.7 6-2.3 3-5 6.4-6 7.5-1 1.1-10 12.1-20 24.5-9.9 12.4-18.9 23.4-19.9 24.5-1.1 1.1-3.8 4.5-6.1 7.5s-5.4 6.8-6.9 8.5c-1.4 1.6-4 4.7-5.7 6.9-1.8 2.1-3.6 4.3-4.2 5-10.9 12.3-13.5 15.7-13 16.6.4.7 45.8 1 141 1h140.4l.3 24.7c.2 13.7.2 25.3 0 25.9-.5 1.9-47.1 2.5-168.7 2.2-63.8-.2-131.2-.4-149.7-.6l-33.8-.3v-52.6l2.6-3.9c2.4-3.5 12.4-16.3 14.9-19 .6-.6 2.1-2.5 3.5-4.3 1.4-1.8 3.2-4.1 4.2-5.2.9-1.1 3.1-3.8 5-6.1 1.8-2.3 3.8-4.6 4.3-5.2.6-.6 3.3-4 6-7.6 2.7-3.6 5.4-7 6-7.7.5-.6 2.1-2.6 3.5-4.4 3.7-4.9 14.3-18.2 15.5-19.5.5-.6 2.1-2.5 3.5-4.3 1.4-1.8 5.8-7.4 9.7-12.4 4-5.1 7.6-9.7 8-10.2.5-.6 2.4-3 4.3-5.5s4.3-5.4 5.3-6.5c1.1-1.1 4.7-5.6 8-10 3.4-4.4 7.9-10.3 10.2-13 2.2-2.8 5.1-6.5 6.5-8.3 1.4-1.8 3.5-4.5 4.8-6 1.3-1.5 5.1-6.3 8.5-10.7 5-6.5 16.2-20.7 44-55.5.7-.8 2.8-3.5 4.7-6 1.9-2.5 4.9-6.1 6.7-8 1.8-1.9 3.3-3.8 3.3-4.1 0-.4 1.3-2.2 3-4 1.6-1.9 3-3.7 3-4.1 0-.3 1.8-2.6 4-5 2.2-2.3 4-4.6 4-5 0-.4.6-1.3 1.3-2 .7-.7 2.8-3.3 4.7-5.8 1.9-2.5 3.7-4.7 4-5 .4-.3 3.9-4.6 7.8-9.5 18-22.5 25.7-31.9 32.3-38.9 3.6-3.9 8.1-8.9 10-11.1 1.9-2.2 3.7-4.2 4.2-4.3.4-.2.7-1 .7-1.8 0-1.2-17.5-1.4-123-1.4H554v-53h318.9l.3 25.7z"/></svg>